{
  "accessors": [
    {
      "bufferView": 2,
      "componentType": 5126,
      "count": 196,
      "max": [
        0.800000011920929,
        2.533406972885132,
        0.800000011920929
      ],
      "min": [
        -0.800000011920929,
        -2.4000000953674316,
        -0.800000011920929
      ],
      "type": "VEC3"
    },
    {
      "bufferView": 2,
      "byteOffset": 2352,
      "componentType": 5126,
      "count": 196,
      "max": [
        1.0,
        1.0,
        1.0
      ],
      "min": [
        -1.0,
        -1.0,
        -1.0
      ],
      "type": "VEC3"
    },
    {
      "bufferView": 3,
      "componentType": 5126,
      "count": 196,
      "max": [
        0.8314720988273621,
        1.832148882385809e-06,
        0.9951854348182678,
        1.0
      ],
      "min": [
        -0.2902870774269104,
        -1.0,
        -0.9569403529167175,
        1.0
      ],
      "type": "VEC4"
    },
    {
      "bufferView": 1,
      "componentType": 5126,
      "count": 196,
      "max": [
        0.99609375,
        0.9697892069816589
      ],
      "min": [
        0.00390625,
        0.00390625
      ],
      "type": "VEC2"
    },
    {
      "bufferView": 0,
      "componentType": 5125,
      "count": 564,
      "type": "SCALAR"
    }
  ],
  "asset": {
    "extras": {
      "author": "a.a.volodyaev (https://sketchfab.com/a.a.volodyaev)",
      "license": "CC-BY-4.0 (http://creativecommons.org/licenses/by/4.0/)",
      "source": "https://sketchfab.com/3d-models/aa-battery-60afa9fb1d2e4aef9bd5aeb6d05dc536",
      "title": "AA Battery"
    },
    "generator": "Sketchfab-14.95.0",
    "version": "2.0"
  },
  "bufferViews": [
    {
      "buffer": 0,
      "byteLength": 2256,
      "name": "floatBufferViews",
      "target": 34963
    },
    {
      "buffer": 0,
      "byteLength": 1568,
      "byteOffset": 2256,
      "byteStride": 8,
      "name": "floatBufferViews",
      "target": 34962
    },
    {
      "buffer": 0,
      "byteLength": 4704,
      "byteOffset": 3824,
      "byteStride": 12,
      "name": "floatBufferViews",
      "target": 34962
    },
    {
      "buffer": 0,
      "byteLength": 3136,
      "byteOffset": 8528,
      "byteStride": 16,
      "name": "floatBufferViews",
      "target": 34962
    }
  ],
  "buffers": [
    {
      "byteLength": 11664,
      "uri": "scene.bin"
    }
  ],
  "images": [
    {
      "uri": "textures/AA_Battery_baseColor.png"
    },
    {
      "uri": "textures/AA_Battery_metallicRoughness.png"
    },
    {
      "uri": "textures/AA_Battery_normal.png"
    }
  ],
  "materials": [
    {
      "doubleSided": true,
      "name": "AA_Battery",
      "normalTexture": {
        "index": 2
      },
      "pbrMetallicRoughness": {
        "baseColorTexture": {
          "index": 0
        },
        "metallicRoughnessTexture": {
          "index": 1
        }
      }
    }
  ],
  "meshes": [
    {
      "name": "Battery_low_AA Battery_0",
      "primitives": [
        {
          "attributes": {
            "NORMAL": 1,
            "POSITION": 0,
            "TANGENT": 2,
            "TEXCOORD_0": 3
          },
          "indices": 4,
          "material": 0,
          "mode": 4
        }
      ]
    }
  ],
  "nodes": [
    {
      "children": [
        1
      ],
      "matrix": [
        1.0,
        0.0,
        0.0,
        0.0,
        0.0,
        2.220446049250313e-16,
        -1.0,
        0.0,
        0.0,
        1.0,
        2.220446049250313e-16,
        0.0,
        0.0,
        0.0,
        0.0,
        1.0
      ],
      "name": "Sketchfab_model"
    },
    {
      "children": [
        2
      ],
      "matrix": [
        0.009999999776482582,
        0.0,
        0.0,
        0.0,
        0.0,
        0.0,
        0.009999999776482582,
        0.0,
        0.0,
        -0.009999999776482582,
        0.0,
        0.0,
        0.0,
        0.0,
        0.0,
        1.0
      ],
      "name": "cd020bb5234d46f8bf0ea39f67dcdf73.fbx"
    },
    {
      "children": [
        3
      ],
      "name": "RootNode"
    },
    {
      "children": [
        4
      ],
      "name": "Battery_low"
    },
    {
      "mesh": 0,
      "name": "Battery_low_AA Battery_0"
    }
  ],
  "samplers": [
    {
      "magFilter": 9729,
      "minFilter": 9987,
      "wrapS": 10497,
      "wrapT": 10497
    }
  ],
  "scene": 0,
  "scenes": [
    {
      "name": "Sketchfab_Scene",
      "nodes": [
        0
      ]
    }
  ],
  "textures": [
    {
      "sampler": 0,
      "source": 0
    },
    {
      "sampler": 0,
      "source": 1
    },
    {
      "sampler": 0,
      "source": 2
    }
  ]
}
